<svg width="1866" height="1291" viewBox="0 0 1866 1291" fill="none" xmlns="http://www.w3.org/2000/svg">
<path d="M157.173 268.94C278.351 291.287 361.901 347.138 407.822 436.494C453.744 525.851 514.859 534.223 591.165 461.61C667.472 388.998 732.416 376.954 785.998 425.477C839.58 474 888.838 545.576 933.771 640.203C978.704 734.831 1031.53 787.391 1092.25 797.882C1152.96 808.374 1222.06 774.187 1299.54 695.32C1377.02 616.454 1437.85 626.355 1482.02 725.025C1526.2 823.695 1582.86 855.783 1652.02 821.289C1721.17 786.796 1760.36 744.993 1769.57 695.88" stroke="#143AA2"/>
<path d="M153.118 290.567C274.295 312.913 357.845 368.764 403.767 458.121C449.689 547.477 510.803 555.849 587.11 483.237C663.416 410.625 728.361 398.58 781.943 447.103C835.525 495.627 884.782 567.202 929.715 661.83C974.648 756.457 1027.47 809.017 1088.19 819.509C1148.91 830.001 1218 795.813 1295.48 716.947C1372.96 638.08 1433.79 647.982 1477.97 746.651C1522.14 845.321 1578.81 877.409 1647.96 842.916C1717.12 808.423 1756.3 766.62 1765.52 717.507" stroke="#143AA2"/>
<path d="M149.061 312.193C270.239 334.539 353.788 390.391 399.71 479.747C445.632 569.104 506.746 577.476 583.053 504.863C659.36 432.251 724.304 420.207 777.886 468.73C831.468 517.253 880.726 588.829 925.659 683.456C970.592 778.084 1023.42 830.644 1084.13 841.135C1144.85 851.627 1213.95 817.44 1291.43 738.573C1368.91 659.707 1429.74 669.608 1473.91 768.278C1518.08 866.948 1574.75 899.036 1643.91 864.542C1713.06 830.049 1752.25 788.246 1761.46 739.133" stroke="#143AA2"/>
<path d="M145.206 332.739C266.383 355.085 349.933 410.936 395.855 500.293C441.777 589.649 502.891 598.021 579.198 525.409C655.504 452.796 720.449 440.752 774.031 489.275C827.613 537.799 876.87 609.374 921.803 704.002C966.736 798.629 1019.56 851.189 1080.28 861.681C1140.99 872.172 1210.09 837.985 1287.57 759.119C1365.05 680.252 1425.88 690.154 1470.05 788.823C1514.23 887.493 1570.89 919.581 1640.05 885.088C1709.21 850.595 1748.39 808.791 1757.6 759.679" stroke="#143AA2"/>
<path d="M141.354 353.283C262.532 375.629 346.081 431.481 392.003 520.837C437.925 610.194 499.039 618.566 575.346 545.953C651.653 473.341 716.597 461.296 770.179 509.82C823.761 558.343 873.018 629.919 917.951 724.546C962.885 819.174 1015.71 871.733 1076.43 882.225C1137.14 892.717 1206.24 858.529 1283.72 779.663C1361.2 700.796 1422.03 710.698 1466.2 809.368C1510.38 908.037 1567.04 940.126 1636.2 905.632C1705.35 871.139 1744.54 829.336 1753.75 780.223" stroke="#143AA2"/>
<path d="M137.5 373.828C258.677 396.174 342.227 452.026 388.149 541.382C434.071 630.738 495.185 639.11 571.491 566.498C647.798 493.886 712.742 481.841 766.324 530.365C819.906 578.888 869.164 650.463 914.097 745.091C959.03 839.719 1011.85 892.278 1072.57 902.77C1133.29 913.262 1202.39 879.074 1279.87 800.208C1357.35 721.341 1418.17 731.243 1462.35 829.913C1506.52 928.582 1563.19 960.67 1632.34 926.177C1701.5 891.684 1740.68 849.881 1749.9 800.768" stroke="#143AA2"/>
</svg>
