<svg width="1108" height="1731" viewBox="0 0 1108 1731" fill="none" xmlns="http://www.w3.org/2000/svg">
<path d="M39.2749 1399.76C96.8232 1303.93 161.801 1251.53 234.207 1242.57C306.614 1233.6 333.825 1184.29 315.84 1094.63C297.855 1004.98 313.672 945.493 363.291 916.186C412.909 886.878 475.393 869.056 550.741 862.717C626.089 856.379 677.96 829.083 706.354 780.828C734.748 732.573 738.207 662.059 716.732 569.285C695.257 476.512 723.322 427.963 800.926 423.638C878.53 419.314 918.976 381.818 922.265 311.152C925.554 240.485 913.493 192.918 886.084 168.45" stroke="#143AA2"/>
<path d="M51.3452 1410.52C108.894 1314.69 173.871 1262.3 246.278 1253.33C318.684 1244.37 345.895 1195.06 327.91 1105.4C309.926 1015.74 325.742 956.259 375.361 926.952C424.979 897.644 487.463 879.821 562.811 873.483C638.16 867.145 690.031 839.848 718.425 791.593C746.818 743.338 750.278 672.824 728.803 580.051C707.327 487.277 735.392 438.728 812.996 434.404C890.6 430.08 931.047 392.584 934.335 321.917C937.624 251.251 925.564 203.683 898.155 179.215" stroke="#143AA2"/>
<path d="M63.4234 1421.31C120.972 1325.48 185.949 1273.08 258.356 1264.11C330.762 1255.15 357.973 1205.84 339.988 1116.18C322.004 1026.52 337.82 967.04 387.439 937.733C437.057 908.425 499.541 890.602 574.889 884.264C650.238 877.926 702.109 850.629 730.503 802.375C758.897 754.12 762.356 683.605 740.881 590.832C719.406 498.059 747.47 449.51 825.074 445.185C902.678 440.861 943.125 403.365 946.413 332.699C949.702 262.032 937.642 214.465 910.233 189.997" stroke="#143AA2"/>
<path d="M74.8765 1431.55C132.425 1335.72 197.402 1283.32 269.809 1274.36C342.216 1265.39 369.426 1216.08 351.442 1126.42C333.457 1036.76 349.274 977.282 398.892 947.975C448.511 918.667 510.994 900.845 586.342 894.506C661.691 888.168 713.562 860.872 741.956 812.617C770.35 764.362 773.809 693.848 752.334 601.074C730.859 508.301 758.923 459.752 836.527 455.427C914.132 451.103 954.578 413.607 957.867 342.941C961.155 272.274 949.095 224.707 921.686 200.239" stroke="#143AA2"/>
<path d="M86.3452 1441.78C143.894 1345.95 208.871 1293.55 281.278 1284.59C353.684 1275.63 380.895 1226.31 362.91 1136.66C344.926 1047 360.742 987.517 410.361 958.209C459.979 928.902 522.463 911.079 597.811 904.741C673.16 898.403 725.031 871.106 753.425 822.851C781.818 774.596 785.278 704.082 763.803 611.309C742.327 518.535 770.392 469.986 847.996 465.662C925.6 461.337 966.047 423.842 969.335 353.175C972.624 282.509 960.564 234.941 933.155 210.473" stroke="#143AA2"/>
<path d="M97.8218 1452.01C155.37 1356.18 220.348 1303.78 292.754 1294.82C365.161 1285.85 392.372 1236.54 374.387 1146.88C356.402 1057.23 372.219 997.743 421.837 968.436C471.456 939.128 533.939 921.306 609.288 914.967C684.636 908.629 736.507 881.333 764.901 833.078C793.295 784.823 796.754 714.309 775.279 621.535C753.804 528.762 781.868 480.213 859.473 475.888C937.077 471.564 977.523 434.068 980.812 363.402C984.1 292.735 972.04 245.168 944.631 220.7" stroke="#143AA2"/>
</svg>
